<svg xmlns="http://www.w3.org/2000/svg" xmlns:xlink="http://www.w3.org/1999/xlink" version="1.1" id="Your_Icon" x="0px" y="0px" width="100px" height="100px" viewBox="0 0 100 100" enable-background="new 0 0 100 100" xml:space="preserve">
<path id="gingerbread_man" d="M72.688,35.405c0-0.922,0.114-1.815,0.313-2.68c6.741-2.487,10.653,1.693,10.653,1.693  c4.682,4.68,3.164,9.164-0.394,12.882C77.314,46.601,72.688,41.538,72.688,35.405z M66.649,95.93  c4.332,4.073,9.629,6.367,15.389,0.612c3.584-3.588,3.232-7.989,1.151-12.289c-0.922-0.192-1.875-0.297-2.852-0.297  C73.344,83.956,67.563,89.181,66.649,95.93z M30.624,19.377C30.624,8.674,39.3,0,50,0c10.697,0,19.375,8.674,19.375,19.377  c0,7.76-4.574,14.435-11.162,17.528c-0.354-0.336-0.869-0.463-1.469-0.252l-1.932,0.682c-1.061,0.373-2.842,0.68-3.964,0.68h-1.701  c-1.122,0-2.903-0.307-3.963-0.68l-1.932-0.682c-0.599-0.211-1.115-0.083-1.469,0.252C35.198,33.812,30.624,27.137,30.624,19.377z   M54.175,14.83c0,0.292,0.031,0.573,0.084,0.847c0.051,0.263,0.28,0.453,0.547,0.453c0,0,0,0,0.002,0  c0.266,0,0.497-0.193,0.545-0.456c0.307-1.669,1.765-2.88,3.46-2.88s3.146,1.211,3.453,2.88c0.049,0.261,0.275,0.453,0.541,0.456  c0.003,0,0.003,0,0.006,0c0.266,0,0.493-0.188,0.547-0.448c0.052-0.278,0.086-0.56,0.086-0.852c0-2.555-2.078-4.635-4.633-4.635  C56.253,10.195,54.175,12.275,54.175,14.83z M50,21.82c-6.194,0-11.218-0.685-11.218,2.106c0,2.789,5.024,8,11.218,8  c6.192,0,11.218-5.211,11.218-8C61.219,21.135,56.192,21.82,50,21.82z M36.456,14.83c0,0.292,0.032,0.573,0.086,0.847  c0.051,0.263,0.28,0.453,0.547,0.453c0,0,0,0,0.001,0c0.266,0,0.498-0.193,0.546-0.456c0.306-1.669,1.764-2.88,3.457-2.88  c1.695,0,3.148,1.211,3.456,2.88c0.048,0.261,0.276,0.453,0.542,0.456c0.002,0,0.002,0,0.005,0c0.266,0,0.493-0.188,0.547-0.448  c0.052-0.278,0.086-0.56,0.086-0.852c0-2.555-2.078-4.635-4.636-4.635C38.535,10.195,36.456,12.275,36.456,14.83z M29.855,35.405  c0,6.719-4.587,12.367-10.791,14.023c5.67,4.57,13.556,7.552,13.556,7.552l0.128,9.986c0,0-1.117,0.811-2.776,2.178  c2.616,2.08,6.28,4.141,9.195,2.963c3.35-1.354,7.125-7.377,6.708-27.838c-0.242,0.065-0.49,0.133-0.69,0.203l-1.932,0.683  c-1.06,0.372-1.923-0.242-1.923-1.362v-3.747c-3.941-1.807-8.304-3.932-10.96-5.627c-0.199-0.125-0.387-0.219-0.582-0.336  C29.827,34.52,29.855,34.96,29.855,35.405z M80.338,81.021c0.344,0,0.677,0.031,1.016,0.052c-2.419-3.608-5.722-6.974-8.524-9.513  c-2.25,1.709-5.282,3.443-8.36,3.443c-0.938,0-1.882-0.162-2.805-0.537c-5.968-2.408-8.69-12.361-8.305-30.369  c-0.874-0.18-1.815-0.305-2.51-0.305h-0.711C50.058,43.827,50,43.851,50,43.851s-0.06-0.023-0.139-0.058h-0.712  c-0.219,0-0.477,0.019-0.737,0.042c0.418,18.169-2.301,28.21-8.294,30.632c-0.927,0.375-1.867,0.537-2.805,0.537  c-3.534,0-7.013-2.281-9.305-4.188c-2.948,2.594-6.669,6.252-9.333,10.21c0.038,0,0.07-0.005,0.107-0.005  c7.981,0,14.665,5.609,16.346,13.088c3.089-3.39,5.57-7.307,7.224-8.958C46.472,81.029,50,81.498,50,81.498s3.526-0.469,7.648,3.653  c1.525,1.526,3.768,4.995,6.54,8.195C66.143,86.253,72.634,81.021,80.338,81.021z M18.783,83.956c-0.646,0-1.276,0.058-1.897,0.144  c-2.148,4.352-2.55,8.815,1.077,12.442c5.409,5.403,10.414,3.706,14.591,0.099C31.971,89.553,26.024,83.956,18.783,83.956z   M58.669,43.793c0,1.12-0.863,1.734-1.924,1.362l-0.857-0.305c-0.338,20.015,3.406,25.919,6.727,27.263  c2.582,1.041,5.753-0.459,8.261-2.264c-2.123-1.797-3.624-2.883-3.624-2.883l0.126-9.986c0,0,7.889-2.981,13.558-7.552  c-6.203-1.656-10.792-7.305-10.792-14.023c0-0.445,0.03-0.885,0.069-1.323c-0.195,0.117-0.383,0.211-0.582,0.336  c-2.656,1.695-7.02,3.82-10.961,5.627V43.793z M16.346,34.418c-4.681,4.68-3.164,9.164,0.392,12.882  c5.945-0.7,10.575-5.763,10.575-11.896c0-0.922-0.116-1.815-0.313-2.68C20.259,30.239,16.346,34.418,16.346,34.418z"/>
</svg>